<svg xmlns="http://www.w3.org/2000/svg" viewBox="0 0 318.03 151.94"><defs><style>.a{fill:#272525;}.b,.c,.d,.e,.g,.h{fill:none;stroke-miterlimit:10;}.b,.c,.d,.g{stroke:#272525;}.c{stroke-width:0.77px;}.d,.e{stroke-width:2px;}.e,.h{stroke:#fff;}.f{fill:#a62c30;}.g,.h{stroke-width:1.27px;}</style></defs><title>BBytes Logo</title><path class="a" d="M129.76,120.11a7.7,7.7,0,0,0-1.47,1.71,15.55,15.55,0,0,0-1.49,2.76,13.76,13.76,0,0,0-.91,3.2,5.65,5.65,0,0,0,.26,3,4.52,4.52,0,0,0,2.07,2.24,9.07,9.07,0,0,0,4.47.89,7.71,7.71,0,0,0,4.13-1.23,14.76,14.76,0,0,0,3.51-3.05,16.88,16.88,0,0,0,2.5-4,11.63,11.63,0,0,0,1.08-4,4.53,4.53,0,0,0-.77-3.05,3.46,3.46,0,0,0-3-1.23,1.89,1.89,0,0,1-.77-0.17,0.84,0.84,0,0,1-.46-0.34q-0.07-.17.29-0.34a3.9,3.9,0,0,1,1.42-.17,14.33,14.33,0,0,1,6.95,1.37,5.83,5.83,0,0,1,3,3.44,6.47,6.47,0,0,1-.5,4.47,12.58,12.58,0,0,1-3.58,4.47,21.12,21.12,0,0,1-6.23,3.44,24.18,24.18,0,0,1-8.39,1.37,21.92,21.92,0,0,1-7.93-1.13,7.38,7.38,0,0,1-3.77-2.81,4.62,4.62,0,0,1-.48-3.63,8.59,8.59,0,0,1,2-3.61,11.91,11.91,0,0,1,3.63-2.72A9,9,0,0,1,129.76,120.11Zm2.45-4.18a4.86,4.86,0,0,1-3.65-1.11,4.39,4.39,0,0,1-1.42-3.05,8,8,0,0,1,1-4,12.07,12.07,0,0,1,3.46-4.06,20.59,20.59,0,0,1,6.08-3.15,27.29,27.29,0,0,1,8.84-1.27,17.47,17.47,0,0,1,7.55,1.32,6.71,6.71,0,0,1,3.51,3.34,5.78,5.78,0,0,1,0,4.33,10.92,10.92,0,0,1-3.17,4.33,18.66,18.66,0,0,1-5.89,3.34,23.26,23.26,0,0,1-8.1,1.32,2.72,2.72,0,0,1-1.27-.17,0.18,0.18,0,0,1,0-.34,2.57,2.57,0,0,1,.72-0.34,2.87,2.87,0,0,1,.89-0.17,6.93,6.93,0,0,0,3.7-1.18,14.92,14.92,0,0,0,3.41-3,17.66,17.66,0,0,0,2.52-3.87,9.35,9.35,0,0,0,1-3.87,4.1,4.1,0,0,0-1.08-3,5,5,0,0,0-3.75-1.18,12.36,12.36,0,0,0-5.19,1,14.09,14.09,0,0,0-3.92,2.62,15.85,15.85,0,0,0-2.76,3.48,20.49,20.49,0,0,0-1.71,3.65,15.68,15.68,0,0,0-.77,3.12A3.7,3.7,0,0,0,132.21,115.93ZM127.4,130l13.27-27.16,7.55-1.06L134.95,129Z" transform="translate(-10.01 -8.47)"/><path class="a" d="M161.1,129.05q1.54-3.27,2.93-6.06t2.4-4.9q1.2-2.45,2.16-4.52l7.55-1.06q-0.82,1.73-2,4.09-1,2-2.48,5t-3.49,7a53.71,53.71,0,0,1-3.77,6.49,17.2,17.2,0,0,1-3.61,3.89,10.71,10.71,0,0,1-3.92,1.9,19.7,19.7,0,0,1-4.66.5,6.16,6.16,0,0,1-3.75-1,4.92,4.92,0,0,1-1.85-2.48,5.13,5.13,0,0,1,0-3,5.39,5.39,0,0,1,1.73-2.67,6.62,6.62,0,0,1,3.39-1.39,10.13,10.13,0,0,1,5,.74,5,5,0,0,0-1.63,1.23,12.35,12.35,0,0,0-1.39,1.85,14,14,0,0,0-1.06,2.07,11.71,11.71,0,0,0-.62,1.95,3.93,3.93,0,0,0-.1,1.44,0.54,0.54,0,0,0,.53.55,2.6,2.6,0,0,0,1.32-.6,10.29,10.29,0,0,0,1.92-2,39.43,39.43,0,0,0,2.45-3.58A61.79,61.79,0,0,0,161.1,129.05Zm-6.83-8.46,1.42-2.84q0.65-1.3,1.13-2.21t1-1.87l7.55-1.06-1,1.92q-0.53,1-1.27,2.5t-1.85,3.7q-1.11,2.16-1.78,3.53a18.52,18.52,0,0,0-.94,2.16,2.11,2.11,0,0,0-.17,1.11,0.48,0.48,0,0,0,.53.31,3,3,0,0,0,1.78-1.15,25.08,25.08,0,0,0,2.38-3,46.41,46.41,0,0,0,2.5-4,45.69,45.69,0,0,0,2.14-4.37q-1.63,3.89-3,6.71a28.1,28.1,0,0,1-2.64,4.61,9.64,9.64,0,0,1-2.79,2.67,6.54,6.54,0,0,1-3.39.87,5.67,5.67,0,0,1-3.2-.67,2.28,2.28,0,0,1-1-1.92,7.77,7.77,0,0,1,.7-3Q153.22,122.8,154.27,120.59Z" transform="translate(-10.01 -8.47)"/><path class="a" d="M174.08,122.22q0.34-.77.91-1.92l1.25-2.5,1.39-2.81,1.44-2.91q1.63-3.36,3.51-7.07l8.7-3.32q-2.12,4.23-4,8.17l-1.68,3.44q-0.87,1.76-1.71,3.41t-1.56,3.12L181,122.37q-1.11,2.16-1.75,3.58t-0.94,2.26a2.29,2.29,0,0,0-.19,1.18,0.48,0.48,0,0,0,.53.34,3,3,0,0,0,1.92-1.11,19.44,19.44,0,0,0,2.07-2.45q1.15-1.59,2.36-3.56a21.19,21.19,0,0,1-2.55,4.61,16.92,16.92,0,0,1-1.39,1.68,10.68,10.68,0,0,1-1.71,1.47,8.58,8.58,0,0,1-2,1,6.75,6.75,0,0,1-2.28.38q-2.26,0-3-.91a2.92,2.92,0,0,1-.53-2.31,11.52,11.52,0,0,1,1-3.1Q173.31,123.76,174.08,122.22Zm2.21-9.61,1.06-1.87H189.7l-1,1.87h-12.4Z" transform="translate(-10.01 -8.47)"/><path class="a" d="M190.95,131a10.49,10.49,0,0,0,6-1.83,26.81,26.81,0,0,0,5.31-4.86,15.55,15.55,0,0,1-2.28,2.86,17.82,17.82,0,0,1-3,2.43,15.87,15.87,0,0,1-3.53,1.68,12.23,12.23,0,0,1-3.89.62,6.87,6.87,0,0,1-4.71-1.42,5.35,5.35,0,0,1-1.8-3.58,9.7,9.7,0,0,1,.79-4.64,15.2,15.2,0,0,1,3-4.64,16.71,16.71,0,0,1,4.9-3.58,14.41,14.41,0,0,1,6.44-1.42,6.15,6.15,0,0,1,3.65.91,3.36,3.36,0,0,1,1.44,2.31,5.2,5.2,0,0,1-.67,3.08,10.68,10.68,0,0,1-2.74,3.24,19,19,0,0,1-4.66,2.76,24.27,24.27,0,0,1-6.49,1.68q-0.62-.24-0.36-0.48a1.11,1.11,0,0,1,.6-0.29,5.41,5.41,0,0,0,2.62-1.13,14.35,14.35,0,0,0,2.48-2.38,26,26,0,0,0,2.11-3,21.16,21.16,0,0,0,1.51-2.88,9.21,9.21,0,0,0,.67-2.21q0.12-.89-0.41-0.89a3.44,3.44,0,0,0-1.92,1.3,25.25,25.25,0,0,0-2.6,3.27,41.62,41.62,0,0,0-2.52,4.23,22.19,22.19,0,0,0-1.73,4.23,6.61,6.61,0,0,0-.24,3.27A1.8,1.8,0,0,0,190.95,131Z" transform="translate(-10.01 -8.47)"/><path class="a" d="M209.12,121.84a2.28,2.28,0,0,0-1.11.79,9.89,9.89,0,0,0-1.2,1.71,16.88,16.88,0,0,0-1,2.16,12.16,12.16,0,0,0-.65,2.14,3.74,3.74,0,0,0,0,1.63,0.79,0.79,0,0,0,.84.65,3.14,3.14,0,0,0,1.13-.29,4.14,4.14,0,0,0,1.37-1,6.34,6.34,0,0,0,1.2-1.95,8.71,8.71,0,0,0,.58-3.15,21.66,21.66,0,0,0-.48-4.59,36.23,36.23,0,0,0-2-6.3l6.49-1.06a21.46,21.46,0,0,1,2.28,8.2,11.25,11.25,0,0,1-1.27,6,9.07,9.07,0,0,1-4,3.73,13,13,0,0,1-5.82,1.27,5.15,5.15,0,0,1-3.34-1,4.28,4.28,0,0,1-1.51-2.36,5.49,5.49,0,0,1,.12-2.91,6,6,0,0,1,4.45-4.16A6.67,6.67,0,0,1,209.12,121.84Z" transform="translate(-10.01 -8.47)"/><line class="b" x1="213.99" y1="107.03" x2="265.99" y2="107.03"/><line class="c" x1="214.45" y1="107.43" x2="256.91" y2="103.64"/><line class="c" x1="214.48" y1="107.45" x2="256.91" y2="110.86"/><path class="d" d="M11.32,58.38l1.77,3.89C38.53,47.72,89,37.22,148,35.1V32.77C90,34.76,39.46,44.56,11.32,58.38Z" transform="translate(-10.01 -8.47)"/><path class="d" d="M326.61,56.91C297.8,43.79,249,34.58,191,32.74v2.33c58,2,107,11.77,133.43,25.54Z" transform="translate(-10.01 -8.47)"/><path class="e" d="M11.32,56.83l1.77,3.89C38.53,46.17,89,35.67,148,33.56V31.23C90,33.22,39.46,43,11.32,56.83Z" transform="translate(-10.01 -8.47)"/><path class="e" d="M326.61,55.36C297.8,42.24,249,33,191,31.19v2.33c58,2,107,11.77,133.43,25.54Z" transform="translate(-10.01 -8.47)"/><path d="M11.8,56.83l2,3.89c25.44-14.55,74.35-25,133.85-27.16l0-2.37C89,33.18,39.94,43,11.8,56.83Z" transform="translate(-10.01 -8.47)"/><path d="M326.51,55.09C297.69,42,249,33,192,31.19v2.33c58,2,106,11.39,132.42,25.16Z" transform="translate(-10.01 -8.47)"/><path class="f" d="M32.51,157.7l2.83-7,2.83,7,2.3-6.56h1.06l-3.35,9.2-2.83-7-2.83,7-3.35-9.2h1.06Z" transform="translate(-10.01 -8.47)"/><path class="f" d="M43.41,151.14h4.54V152H44.39v2.6h3.46v0.9H44.39V159h3.56v0.9H43.41v-8.75Z" transform="translate(-10.01 -8.47)"/><path class="f" d="M50.48,151.14h1.44c1.59,0,2.92.58,2.92,2.37a1.94,1.94,0,0,1-.86,1.71,2.22,2.22,0,0,1,1.66,2.24c0,1.74-1.4,2.44-3.13,2.44h-2v-8.75Zm1,3.85h0.37c1.1,0,2-.13,2-1.49S53,152,51.83,152H51.45V155Zm0,4h1c1.09,0,2.24-.27,2.24-1.6s-1.3-1.55-2.37-1.55H51.45V159Z" transform="translate(-10.01 -8.47)"/><path class="f" d="M62.38,151.14H64a4.77,4.77,0,0,1,3.41,1.06,4.49,4.49,0,0,1,0,6.59,4.65,4.65,0,0,1-3.46,1.1H62.38v-8.75ZM64.06,159a3.67,3.67,0,0,0,2.76-.91,3.58,3.58,0,0,0,0-5.19,3.76,3.76,0,0,0-2.71-.85H63.35V159h0.71Z" transform="translate(-10.01 -8.47)"/><path class="f" d="M71.11,151.14h4.54V152H72.09v2.6h3.46v0.9H72.09V159h3.56v0.9H71.11v-8.75Z" transform="translate(-10.01 -8.47)"/><path class="f" d="M82.14,152.85a1.61,1.61,0,0,0-1.51-1,1.39,1.39,0,0,0-1.45,1.36,1.78,1.78,0,0,0,1.37,1.37l0.58,0.26c1.14,0.5,2.1,1.07,2.1,2.46a2.76,2.76,0,0,1-5.48.44l1-.27a1.8,1.8,0,0,0,1.75,1.62,1.76,1.76,0,0,0,1.8-1.71c0-1-.8-1.37-1.61-1.74l-0.53-.23c-1-.46-1.9-1-1.9-2.24A2.3,2.3,0,0,1,80.66,151a2.51,2.51,0,0,1,2.26,1.36Z" transform="translate(-10.01 -8.47)"/><path class="f" d="M86.53,159.89h-1v-8.75h1v8.75Z" transform="translate(-10.01 -8.47)"/><path class="f" d="M97.3,155.49a4.16,4.16,0,0,1-.91,3.09A4.32,4.32,0,0,1,93.16,160a4.53,4.53,0,1,1,3.76-7.16l-0.71.66a3.56,3.56,0,0,0-3-1.65,3.63,3.63,0,0,0-3.57,3.65,3.52,3.52,0,0,0,1,2.47,3.68,3.68,0,0,0,2.48,1.11,3,3,0,0,0,3.12-2.74h-2.6v-0.9H97.3Z" transform="translate(-10.01 -8.47)"/><path class="f" d="M99.61,150.77l6.82,7.15v-6.78h1v9.14l-6.82-7.14v6.74h-1v-9.12Z" transform="translate(-10.01 -8.47)"/><path class="f" d="M124.73,157.41l-1.06,2.48h-1.07l4-9.17,3.93,9.17H129.5l-1-2.48h-3.74Zm1.89-4.41-1.5,3.5h3Z" transform="translate(-10.01 -8.47)"/><path class="f" d="M132.4,151.14H134a4.77,4.77,0,0,1,3.41,1.06,4.49,4.49,0,0,1,0,6.59,4.65,4.65,0,0,1-3.46,1.1H132.4v-8.75Zm1.68,7.84a3.67,3.67,0,0,0,2.76-.91,3.58,3.58,0,0,0,0-5.19,3.76,3.76,0,0,0-2.71-.85h-0.71V159h0.71Z" transform="translate(-10.01 -8.47)"/><path class="f" d="M143.87,157.81l2.49-6.67h1.06l-3.55,9.27-3.55-9.27h1.06Z" transform="translate(-10.01 -8.47)"/><path class="f" d="M149.24,151.14h4.54V152h-3.56v2.6h3.46v0.9h-3.46V159h3.56v0.9h-4.54v-8.75Z" transform="translate(-10.01 -8.47)"/><path class="f" d="M157.28,159.89h-1v-8.75h1.26c1.66,0,3.2.44,3.2,2.41a2.29,2.29,0,0,1-2.19,2.41l2.78,3.92h-1.19l-2.65-3.84h-0.24v3.84Zm0-4.7h0.3c1.1,0,2.22-.21,2.22-1.57s-1.06-1.58-2.23-1.58h-0.29v3.14Z" transform="translate(-10.01 -8.47)"/><path class="f" d="M165.55,159.89h-1V152h-2.11v-0.91h5.22V152h-2.13v7.84Z" transform="translate(-10.01 -8.47)"/><path class="f" d="M170.55,159.89h-1v-8.75h1v8.75Z" transform="translate(-10.01 -8.47)"/><path class="f" d="M177.16,152.85a1.61,1.61,0,0,0-1.51-1,1.39,1.39,0,0,0-1.45,1.36,1.78,1.78,0,0,0,1.37,1.37l0.58,0.26c1.14,0.5,2.1,1.07,2.1,2.46a2.76,2.76,0,0,1-5.48.44l1-.27a1.8,1.8,0,0,0,1.75,1.62,1.76,1.76,0,0,0,1.8-1.71c0-1-.8-1.37-1.61-1.74l-0.53-.23c-1-.46-1.9-1-1.9-2.24a2.3,2.3,0,0,1,2.45-2.23,2.51,2.51,0,0,1,2.26,1.36Z" transform="translate(-10.01 -8.47)"/><path class="f" d="M181.55,159.89h-1v-8.75h1v8.75Z" transform="translate(-10.01 -8.47)"/><path class="f" d="M184.25,150.77l6.82,7.15v-6.78h1v9.14l-6.82-7.14v6.74h-1v-9.12Z" transform="translate(-10.01 -8.47)"/><path class="f" d="M202.87,155.49a4.16,4.16,0,0,1-.9,3.09,4.32,4.32,0,0,1-3.24,1.46,4.53,4.53,0,1,1,3.76-7.16l-0.71.66a3.56,3.56,0,0,0-3-1.65,3.63,3.63,0,0,0-3.57,3.65,3.52,3.52,0,0,0,1,2.47,3.68,3.68,0,0,0,2.48,1.11,3,3,0,0,0,3.12-2.74h-2.6v-0.9h3.64Z" transform="translate(-10.01 -8.47)"/><path class="f" d="M218.44,151.14h1.65a4.77,4.77,0,0,1,3.41,1.06,4.49,4.49,0,0,1,0,6.59,4.65,4.65,0,0,1-3.46,1.1h-1.62v-8.75Zm1.68,7.84a3.67,3.67,0,0,0,2.76-.91,3.58,3.58,0,0,0,0-5.19,3.76,3.76,0,0,0-2.71-.85h-0.71V159h0.71Z" transform="translate(-10.01 -8.47)"/><path class="f" d="M227.18,151.14h4.54V152h-3.56v2.6h3.46v0.9h-3.46V159h3.56v0.9h-4.54v-8.75Z" transform="translate(-10.01 -8.47)"/><path class="f" d="M237,157.81l2.49-6.67h1.06L237,160.41l-3.55-9.27h1.06Z" transform="translate(-10.01 -8.47)"/><path class="f" d="M242.35,151.14h4.54V152h-3.56v2.6h3.46v0.9h-3.46V159h3.56v0.9h-4.54v-8.75Z" transform="translate(-10.01 -8.47)"/><path class="f" d="M250.39,159h2.41v0.9h-3.39v-8.75h1V159Z" transform="translate(-10.01 -8.47)"/><path class="f" d="M263.31,155.53a4.56,4.56,0,1,1-4.56-4.54A4.54,4.54,0,0,1,263.31,155.53Zm-8.14,0a3.59,3.59,0,1,0,3.58-3.62A3.62,3.62,0,0,0,255.17,155.52Z" transform="translate(-10.01 -8.47)"/><path class="f" d="M266.47,159.89h-1v-8.75h1.44a3.69,3.69,0,0,1,2.17.46,2.41,2.41,0,0,1,1,2,2.46,2.46,0,0,1-.84,1.88,3.15,3.15,0,0,1-2.08.58h-0.71v3.83Zm0-4.73h0.65c1.08,0,2-.32,2-1.58,0-1.43-1.15-1.53-2.29-1.53h-0.36v3.11Z" transform="translate(-10.01 -8.47)"/><path class="f" d="M273.34,150.64l3.18,7.34,3.19-7.34,1.78,9.25h-1L279.36,154h0l-2.82,6.28L273.71,154h0l-1.13,5.92h-1Z" transform="translate(-10.01 -8.47)"/><path class="f" d="M283.47,151.14H288V152h-3.56v2.6h3.46v0.9h-3.46V159H288v0.9h-4.54v-8.75Z" transform="translate(-10.01 -8.47)"/><path class="f" d="M290.59,150.77l6.82,7.15v-6.78h1v9.14l-6.82-7.14v6.74h-1v-9.12Z" transform="translate(-10.01 -8.47)"/><path class="f" d="M303.4,159.89h-1V152h-2.11v-0.91h5.22V152H303.4v7.84Z" transform="translate(-10.01 -8.47)"/><path class="a" d="M115.91,158.18a3.28,3.28,0,0,0-3.65-3.65,3.28,3.28,0,0,0,3.65-3.65,3.28,3.28,0,0,0,3.65,3.65A3.28,3.28,0,0,0,115.91,158.18Z" transform="translate(-10.01 -8.47)"/><path class="a" d="M211.44,158.18a3.28,3.28,0,0,0-3.65-3.65,3.28,3.28,0,0,0,3.65-3.65,3.28,3.28,0,0,0,3.65,3.65A3.28,3.28,0,0,0,211.44,158.18Z" transform="translate(-10.01 -8.47)"/><path class="f" d="M163.73,26.67c0.28-.54-0.56-0.86-0.09-1.36-0.4-1.69-.92-3.32-0.11-5,0.32-.65.69-0.55,0.66-1.24l-0.13-3.8c0-.3-0.35-0.8-0.43-1.19a2.09,2.09,0,0,1,.15-0.74c0.06-.26.19-0.65,0.26-1,0.18-.78-0.25-0.66-0.32-1.36a5.53,5.53,0,0,1,.42-1.15,7.45,7.45,0,0,0,0-1.34c6.41-.11,12.8.1,19.2-0.07-0.89.27-.62,0.66-0.28,1.48a1.72,1.72,0,0,0-.58,1.06,0.46,0.46,0,0,1-.13.19c-0.14.8-1,.94-0.33,1.75a1.87,1.87,0,0,0,.42.92h0a2.4,2.4,0,0,0,.27.74,1.59,1.59,0,0,1-.27.37c-0.07.1-.25-0.14-0.32,0s0.33,0.21.17,0.46a0.59,0.59,0,0,0-.08.38,2.79,2.79,0,0,1-.39.29,6.55,6.55,0,0,1-.65.89c-0.47.39-1.42,0.18-1.26,0.94-1,.19-2.32.12-2.62,1.31l0.08,0a17.47,17.47,0,0,0,.27,2c0,0.18-.4.58-0.07,0.41,0.06,0.13.13,0.18-.09,0.24L177.61,22v0h-0.2a1,1,0,0,0-.1.36A0.81,0.81,0,0,0,177,23a1.22,1.22,0,0,0-.16,0,0.8,0.8,0,0,0,.08.8c-0.84.68-4.3,8.3-3,8.66-0.21.6-1,2.71-.55,3.25,0.16,0.55-.31.91-0.14,1.47s-0.18.77-.68,1,0.14,2.29.07,2.8l0.2-.14a6.41,6.41,0,0,1,.38.67l-5.56-.2c-1.12,0-4,.5-3.14-1.37l0.27-6.34a38.47,38.47,0,0,1,.13-4,2.13,2.13,0,0,1-.5-0.9,0.56,0.56,0,0,0-.78-0.19s-0.12.47-.13,0.53c0,0.48-.51,0-0.38-0.39a11.35,11.35,0,0,1,.63-2h0Z" transform="translate(-10.01 -8.47)"/><path class="g" d="M17.16,67.22q5.28-1.71,10.6-3.29c8.15-2.43,14-.85,16,7,0.76,2.82.55,6.35-1.65,8.64,5.23-.55,8.7,3.61,9.82,8,2,7.77-2.69,12.64-10,14.77q-6.16,1.8-12.28,3.78Zm13.44,13.6,1-.3c4-1.21,5.69-2.85,4.53-6.92s-4-4.33-7.53-3.26l-1.09.33Zm5.06,16.68,1.67-.5c4.26-1.28,7.8-2.82,6.38-7.93s-5.93-4.08-10-2.84l-1.33.4Z" transform="translate(-10.01 -8.47)"/><path class="g" d="M50.11,63.82q3.65-.92,7.31-1.78L61.9,81.11c1,4.21,2.76,10,8.6,8.7s5-7.27,4.14-11.51L70.69,59.12q3.67-.76,7.36-1.45l3.9,20.56c1.57,8.41-.88,15.36-10.18,17.38s-14.45-3.2-16.56-11.49Z" transform="translate(-10.01 -8.47)"/><path class="g" d="M113.24,87.55q-4.17.52-8.33,1.11Q99.63,82.29,94.09,76l-0.1,0L96.26,90q-3.43.56-6.85,1.17L83.26,56.71q5-.89,10-1.68c7.52-1.18,13.12,1.22,14.06,8.62,0.57,4.42-1.44,9.16-6.19,10.64Q107.34,80.84,113.24,87.55Zm-20-16.21,0.92-.15c3.94-.63,6.55-2.13,5.94-6.35s-3.68-4.68-7.56-4.05l-1,.16Z" transform="translate(-10.01 -8.47)"/><path class="g" d="M121.78,80.6q4.95-.51,9.9-0.91l0.48,5.92q-8.35.68-16.67,1.67l-4.13-34.74q3.71-.44,7.43-0.82Z" transform="translate(-10.01 -8.47)"/><path class="g" d="M141.29,85q-3.46.21-6.92,0.48l-2.66-34.88q3.72-.28,7.45-0.51Z" transform="translate(-10.01 -8.47)"/><path class="g" d="M144.54,48.81l5.39-.24Q160.5,60.4,170.06,72.66h0.1l0.07-23.52q3.73,0,7.47.08L177,84.89l-5-.06q-9.25-12.29-19.52-24.18h-0.1l0.82,23.74q-3.46.12-6.92,0.29Z" transform="translate(-10.01 -8.47)"/><path class="g" d="M215.28,67.82l-0.09.88c-1,9.85-7,18-17.94,17.25-10.26-.64-16.59-9.36-16.41-19C181,57,188.53,48.49,200,49.21c6.51,0.41,12,3.93,14.33,9.52Q211,60,207.62,61.39a9.43,9.43,0,0,0-8.17-6.18c-7.16-.45-10.94,6.17-11.16,12s2.91,12.35,9.63,12.77a8.52,8.52,0,0,0,8.83-7.31q-3.87-.32-7.74-0.57l0.36-5.56Q207.33,67,215.28,67.82Z" transform="translate(-10.01 -8.47)"/><path class="g" d="M228.36,88.06q-3.44-.46-6.89-0.86l3.38-28.85q-3.79-.44-7.59-0.83l0.6-5.91q11.41,1.15,22.77,2.85l-0.88,5.87q-3.78-.56-7.57-1.07Z" transform="translate(-10.01 -8.47)"/><path class="g" d="M253.53,93.07c-10.6-2-16.08-11-14.6-21.23s10.15-17.12,21.52-15S277.37,68.64,275,78.74,264.13,95.11,253.53,93.07Zm5.65-29.57c-6.91-1.31-11.92,3.67-12.83,9.25-0.87,5.32.79,12.27,8.44,13.72s11.77-4.37,12.92-9.64C268.92,71.31,266.09,64.83,259.18,63.5Z" transform="translate(-10.01 -8.47)"/><path class="g" d="M285.9,58.41q2.81,0.69,5.61,1.41Q298.77,75,304.85,90.36l0.1,0,7.25-23.74q3.84,1.17,7.66,2.41l-11.58,35.82q-2.55-.82-5.1-1.62Q297.44,88,290.52,72.81l-0.1,0L284.05,97q-3.58-.94-7.17-1.82Z" transform="translate(-10.01 -8.47)"/><path class="h" d="M17.16,66.37q5.28-1.71,10.6-3.29c8.15-2.43,14-.85,16,7,0.76,2.82.55,6.35-1.65,8.64,5.23-.55,8.7,3.61,9.82,8,2,7.77-2.69,12.64-10,14.77q-6.16,1.8-12.28,3.78ZM30.61,80l1-.3c4-1.21,5.69-2.85,4.53-6.92s-4-4.33-7.53-3.26l-1.09.33Zm5.06,16.68,1.67-.5c4.26-1.28,7.8-2.82,6.38-7.93s-5.93-4.08-10-2.84l-1.33.4Z" transform="translate(-10.01 -8.47)"/><path class="h" d="M50.11,63q3.65-.92,7.31-1.78L61.9,80.26c1,4.21,2.76,10,8.6,8.7s5-7.27,4.14-11.51L70.69,58.28q3.67-.76,7.36-1.45l3.9,20.56c1.57,8.41-.88,15.36-10.18,17.38s-14.45-3.2-16.56-11.49Z" transform="translate(-10.01 -8.47)"/><path class="h" d="M113.24,86.7q-4.17.52-8.33,1.11Q99.63,81.44,94.09,75.2l-0.1,0,2.26,13.92q-3.43.56-6.85,1.17L83.26,55.87q5-.89,10-1.68c7.52-1.18,13.12,1.22,14.06,8.62,0.57,4.42-1.44,9.16-6.19,10.64Q107.34,80,113.24,86.7Zm-20-16.21,0.92-.15c3.94-.63,6.55-2.13,5.94-6.35s-3.68-4.67-7.56-4.05l-1,.16Z" transform="translate(-10.01 -8.47)"/><path class="h" d="M121.78,79.76q4.95-.51,9.9-0.91l0.48,5.92q-8.35.68-16.67,1.67l-4.13-34.74q3.71-.44,7.43-0.82Z" transform="translate(-10.01 -8.47)"/><path class="h" d="M141.29,84.11q-3.46.21-6.92,0.48l-2.66-34.88q3.72-.28,7.45-0.51Z" transform="translate(-10.01 -8.47)"/><path class="h" d="M144.54,48l5.39-.24q10.57,11.83,20.13,24.09h0.1l0.07-23.52q3.73,0,7.47.08L177,84l-5-.06Q162.8,71.69,152.54,59.8h-0.1l0.82,23.74q-3.46.12-6.92,0.29Z" transform="translate(-10.01 -8.47)"/><path class="h" d="M215.28,67l-0.09.88c-1,9.85-7,18-17.94,17.25-10.26-.64-16.59-9.36-16.41-19,0.19-10,7.68-18.44,19.19-17.71,6.51,0.41,12,3.93,14.33,9.52q-3.39,1.31-6.75,2.66a9.43,9.43,0,0,0-8.17-6.18c-7.16-.45-10.94,6.17-11.16,12s2.91,12.35,9.63,12.77a8.52,8.52,0,0,0,8.83-7.31q-3.87-.32-7.74-0.57l0.36-5.56Q207.33,66.18,215.28,67Z" transform="translate(-10.01 -8.47)"/><path class="h" d="M228.36,87.21q-3.44-.46-6.89-0.86l3.38-28.85q-3.79-.44-7.59-0.83l0.6-5.91q11.41,1.15,22.77,2.85l-0.88,5.87q-3.78-.56-7.57-1.07Z" transform="translate(-10.01 -8.47)"/><path class="h" d="M253.53,92.23c-10.6-2-16.08-11-14.6-21.23s10.15-17.12,21.52-15S277.37,67.8,275,77.89,264.13,94.26,253.53,92.23Zm5.65-29.57c-6.91-1.31-11.92,3.67-12.83,9.25-0.87,5.32.79,12.27,8.44,13.72s11.77-4.37,12.92-9.64C268.92,70.46,266.09,64,259.18,62.65Z" transform="translate(-10.01 -8.47)"/><path class="h" d="M285.9,57.56q2.81,0.69,5.61,1.41,7.27,15.19,13.35,30.54l0.1,0,7.25-23.74Q316,67,319.86,68.22L308.28,104q-2.55-.82-5.1-1.62Q297.44,87.13,290.52,72l-0.1,0-6.36,24.24q-3.58-.94-7.17-1.82Z" transform="translate(-10.01 -8.47)"/><path class="a" d="M17.32,66.56q5.28-1.71,10.58-3.31c8.14-2.43,13.95-.87,16,7,0.76,2.82.55,6.35-1.64,8.64,5.23-.55,8.7,3.6,9.82,7.94,2,7.76-2.67,12.64-9.94,14.78q-6.15,1.81-12.26,3.79ZM30.77,80.14l1-.31c4-1.21,5.68-2.86,4.51-6.92s-4-4.32-7.53-3.25L27.68,70Zm5.08,16.67,1.67-.51c4.26-1.28,7.78-2.83,6.36-7.94s-5.93-4.07-10-2.83l-1.33.4Z" transform="translate(-10.01 -8.47)"/><path class="a" d="M50.24,63.13q3.64-.92,7.3-1.78L62,80.4c1,4.21,2.77,10,8.6,8.69s5-7.27,4.12-11.51l-4-19.17q3.67-.76,7.35-1.46l3.92,20.55c1.57,8.41-.86,15.36-10.14,17.39S57.48,91.71,55.36,83.42Z" transform="translate(-10.01 -8.47)"/><path class="a" d="M113.32,86.81q-4.17.52-8.32,1.11-5.28-6.37-10.81-12.61l-0.1,0,2.27,13.92q-3.43.56-6.84,1.17L83.35,56q5-.89,10-1.68c7.51-1.18,13.11,1.21,14.05,8.61,0.57,4.42-1.43,9.16-6.18,10.65Q107.42,80.11,113.32,86.81Zm-20-16.2,0.92-.15c3.93-.63,6.54-2.13,5.93-6.36s-3.68-4.67-7.56-4l-1,.16Z" transform="translate(-10.01 -8.47)"/><path class="a" d="M121.84,79.87q4.94-.51,9.89-0.92l0.48,5.92q-8.33.68-16.65,1.67l-4.14-34.74q3.71-.44,7.42-0.83Z" transform="translate(-10.01 -8.47)"/><path class="a" d="M141.33,84.22q-3.46.21-6.91,0.48l-2.68-34.88q3.72-.29,7.45-0.51Z" transform="translate(-10.01 -8.47)"/><path class="a" d="M144.57,48.07l5.38-.24q10.56,11.82,20.11,24.09h0.1l0.07-23.52q3.73,0,7.46.08L177,84.15l-5-.06q-9.24-12.29-19.5-24.18h-0.1l0.82,23.74q-3.46.12-6.92,0.29Z" transform="translate(-10.01 -8.47)"/><path class="a" d="M215.22,67.08l-0.09.88c-1,9.85-7,18-17.92,17.25-10.25-.64-16.57-9.36-16.38-19,0.19-10,7.67-18.44,19.17-17.71,6.51,0.42,11.95,3.93,14.31,9.52q-3.39,1.31-6.74,2.66a9.42,9.42,0,0,0-8.16-6.18c-7.15-.45-10.93,6.17-11.15,12s2.9,12.35,9.62,12.77a8.52,8.52,0,0,0,8.82-7.31q-3.87-.32-7.73-0.57l0.36-5.56Q207.29,66.29,215.22,67.08Z" transform="translate(-10.01 -8.47)"/><path class="a" d="M228.27,87.33q-3.44-.46-6.88-0.86l3.4-28.84q-3.79-.45-7.58-0.83l0.6-5.91q11.4,1.16,22.75,2.86l-0.88,5.87q-3.78-.57-7.56-1.07Z" transform="translate(-10.01 -8.47)"/><path class="a" d="M253.4,92.35c-10.59-2-16-11-14.56-21.23S249,54,260.35,56.18,277.25,67.94,274.83,78,264,94.4,253.4,92.35Zm5.68-29.57c-6.9-1.32-11.92,3.66-12.83,9.24-0.88,5.32.78,12.27,8.42,13.72s11.76-4.36,12.92-9.63C268.81,70.6,266,64.12,259.08,62.78Z" transform="translate(-10.01 -8.47)"/><path class="a" d="M285.78,57.71q2.8,0.69,5.6,1.41,7.24,15.2,13.29,30.55l0.1,0L312.05,66q3.83,1.18,7.65,2.42l-11.63,35.8q-2.54-.83-5.09-1.62-5.71-15.29-12.6-30.46l-0.1,0-6.39,24.23q-3.57-.94-7.16-1.83Z" transform="translate(-10.01 -8.47)"/><line class="b" x1="102.99" y1="107.03" x2="51.99" y2="107.03"/><line class="c" x1="103.09" y1="107.42" x2="60.7" y2="110.86"/><line class="c" x1="103.12" y1="107.43" x2="60.7" y2="103.64"/></svg>