<?xml version="1.0" encoding="UTF-8" standalone="no"?>
<svg width="611px" height="86px" viewBox="0 0 611 86" version="1.1" xmlns="http://www.w3.org/2000/svg" xmlns:xlink="http://www.w3.org/1999/xlink">
    <!-- Generator: Sketch 3.6.1 (26313) - http://www.bohemiancoding.com/sketch -->
    <title>Slice 1</title>
    <desc>Created with Sketch.</desc>
    <defs></defs>
    <g id="Page-1" stroke="none" stroke-width="1" fill="none" fill-rule="evenodd">
        <g id="MIL-Brand-Final-Logo">
            <g id="Group">
                <g transform="translate(197.000000, 0.000000)" id="Shape" fill="#58595B">
                    <path d="M72.8,52.2 L52,52.2 L52,48.7 C53.7,48.7 55,48.5 55.7,48.1 C56.4,47.7 56.9,47.2 57,46.5 C57.2,45.8 57.2,44.7 57.2,43.2 L57.2,31.8 C57.2,30.1 56.8,28.6 56.1,27.2 C55.4,25.8 53.7,25.1 51,25.1 C49.1,25.1 47.5,25.6 46.1,26.5 C44.7,27.4 43.7,28.7 42.9,30.4 C42.2,32 41.8,33.9 41.8,35.9 L41.8,43.2 C41.8,44.8 41.9,45.9 42.1,46.6 C42.3,47.3 42.8,47.8 43.5,48.2 C44.3,48.6 45.5,48.7 47.3,48.7 L47.3,52.2 L27,52.2 L27,48.7 C28.7,48.7 29.9,48.5 30.6,48.1 C31.3,47.7 31.8,47.2 32,46.5 C32.2,45.8 32.2,44.7 32.2,43.2 L32.2,31.4 C32.2,28.8 31.5,27.1 30.1,26.3 C28.7,25.5 27.4,25.2 26.2,25.2 C24.6,25.2 23,25.6 21.5,26.4 C20,27.2 18.9,28.2 18.1,29.4 C17.5,30.3 17.2,31.2 17,32.1 C16.8,33 16.8,34.1 16.8,35.4 L16.8,43.3 C16.8,44.9 16.9,46 17.1,46.7 C17.3,47.4 17.8,47.9 18.6,48.3 C19.4,48.7 20.7,48.8 22.4,48.8 L22.4,52.3 L1.9,52.3 L1.9,48.8 C3.6,48.8 4.8,48.6 5.6,48.3 C6.3,47.9 6.8,47.4 7,46.7 C7.2,46 7.3,44.9 7.3,43.4 L7.3,30.6 C7.3,28.2 5.8,27.1 2.8,27.1 L0.9,27.1 L0.9,23.6 L16.8,20.4 C17,21.7 17.1,23.6 17.1,26.1 C18.9,24.3 20.8,22.9 22.8,21.9 C24.8,20.9 27.1,20.4 29.7,20.4 C32.1,20.4 34.5,20.9 36.7,21.8 C38.9,22.8 40.6,24.5 41.7,27.1 C44,24.4 46.2,22.6 48.3,21.7 C50.4,20.8 52.6,20.4 54.8,20.4 C58.8,20.4 61.8,21.3 64,23.2 C66.2,25.1 67.2,28 67.2,31.8 L67.2,43.4 C67.2,44.8 67.3,45.9 67.4,46.6 C67.5,47.3 67.9,47.9 68.6,48.3 C69.3,48.7 70.3,48.9 71.8,48.9 L73.1,48.9 L73.1,52.2 L72.8,52.2 Z"></path>
                    <path d="M96.6,52.2 L76.2,52.2 L76.2,48.7 L77.3,48.7 C78.8,48.7 79.8,48.5 80.5,48.1 C81.2,47.7 81.6,47.1 81.7,46.4 C81.9,45.7 81.9,44.6 81.9,43.2 L81.9,32 C81.9,30.4 81.8,29.3 81.6,28.7 C81.4,28 80.9,27.6 80.1,27.3 C79.3,27 78,26.8 76.1,26.8 L76.1,23.3 L91.5,20.1 L91.5,43.2 C91.5,45.3 91.8,46.7 92.3,47.5 C92.8,48.3 94.2,48.7 96.5,48.7 L96.5,52.2 L96.6,52.2 Z M92.4,5.5 C92.4,7 91.9,8.3 90.8,9.4 C89.7,10.5 88.5,11 86.9,11 C85.4,11 84.1,10.5 83,9.4 C81.9,8.3 81.4,7 81.4,5.6 C81.4,4.1 81.9,2.8 83,1.7 C84.1,0.6 85.4,0.1 86.9,0.1 C88.4,0.1 89.7,0.6 90.8,1.7 C91.9,2.8 92.4,3.9 92.4,5.5 L92.4,5.5 Z"></path>
                    <path d="M142,51.7 C136.7,51.9 131.8,52.5 127.5,53.4 C127.1,52.6 126.9,51.3 126.8,49.5 C123.6,52.1 120.1,53.4 116.2,53.4 C113.2,53.4 110.5,52.6 108,51.1 C105.5,49.6 103.5,47.5 102,44.8 C100.5,42.2 99.8,39.3 99.8,36.2 C99.8,34.3 100.1,32.4 100.8,30.5 C101.5,28.6 102.5,26.9 103.9,25.3 C105.3,23.7 107,22.5 109.1,21.6 C111.2,20.7 113.5,20.2 116.1,20.2 C118,20.2 119.7,20.4 121.1,20.9 C122.5,21.4 123.6,21.9 124.4,22.5 C125.2,23.1 126.1,23.8 126.9,24.7 L126.9,12.4 C126.9,10.7 126.8,9.5 126.5,8.8 C126.2,8.1 125.7,7.6 124.9,7.4 C124.1,7.2 122.9,7.1 121.2,7 L121.2,3.5 L136.6,0.3 L136.6,42.4 C136.6,44.2 136.7,45.5 136.8,46.2 C137,46.9 137.4,47.4 138.2,47.7 C139,48 140.3,48.2 142.1,48.3 L142.1,51.7 L142,51.7 Z M126.8,44.6 L126.8,29.4 C125.7,28.1 124.5,27 123,25.9 C121.5,24.8 119.8,24.3 117.8,24.3 C116.6,24.3 115.4,24.6 114.3,25.3 C113.2,26 112.4,26.8 111.7,27.9 C110.6,29.6 110,32.5 110,36.7 C110,40.9 110.8,44 112.3,46.1 C113.9,48.2 115.8,49.3 118.1,49.3 C119.8,49.3 121.3,48.9 122.8,48.1 C124.5,47.2 125.7,46.1 126.8,44.6 L126.8,44.6 Z"></path>
                    <path d="M186.5,51.7 C181.2,51.9 176.3,52.5 172,53.4 C171.6,52.6 171.4,51.3 171.3,49.5 C168.1,52.1 164.6,53.4 160.7,53.4 C157.7,53.4 155,52.6 152.5,51.1 C150,49.6 148,47.5 146.5,44.8 C145,42.2 144.3,39.3 144.3,36.2 C144.3,34.3 144.6,32.4 145.3,30.5 C146,28.6 147,26.9 148.4,25.3 C149.8,23.7 151.5,22.5 153.6,21.6 C155.7,20.7 158,20.2 160.6,20.2 C162.5,20.2 164.2,20.4 165.6,20.9 C167,21.4 168.1,21.9 168.9,22.5 C169.7,23.1 170.6,23.8 171.4,24.7 L171.4,12.4 C171.4,10.7 171.3,9.5 171,8.8 C170.7,8.1 170.2,7.6 169.4,7.4 C168.6,7.2 167.4,7.1 165.7,7 L165.7,3.5 L181.1,0.3 L181.1,42.4 C181.1,44.2 181.2,45.5 181.3,46.2 C181.5,46.9 181.9,47.4 182.7,47.7 C183.5,48 184.8,48.2 186.6,48.3 L186.6,51.7 L186.5,51.7 Z M171.3,44.6 L171.3,29.4 C170.2,28.1 169,27 167.5,25.9 C166,24.8 164.3,24.3 162.3,24.3 C161.1,24.3 159.9,24.6 158.8,25.3 C157.7,26 156.9,26.8 156.2,27.9 C155.1,29.6 154.5,32.5 154.5,36.7 C154.5,40.9 155.3,44 156.8,46.1 C158.4,48.2 160.3,49.3 162.6,49.3 C164.3,49.3 165.8,48.9 167.3,48.1 C169,47.2 170.3,46.1 171.3,44.6 L171.3,44.6 Z"></path>
                    <path d="M211.3,52.2 L189.7,52.2 L189.7,48.7 L191.3,48.7 C192.8,48.7 193.8,48.5 194.5,48.1 C195.2,47.7 195.6,47.1 195.7,46.4 C195.8,45.7 195.9,44.6 195.9,43.2 L195.9,11.2 C195.9,9.4 195.5,8.2 194.6,7.7 C193.8,7.2 192.1,6.9 189.6,6.9 L189.6,3.4 L205.5,0.2 L205.5,43.1 C205.5,44.5 205.6,45.6 205.7,46.3 C205.8,47 206.2,47.6 206.9,48 C207.6,48.4 208.6,48.6 210.1,48.6 L211.2,48.6 L211.2,52.2 L211.3,52.2 Z"></path>
                    <path d="M247.4,35.6 L224.3,35.6 C224.3,36.1 224.4,37.1 224.5,38.6 C224.6,40.2 225,41.7 225.6,43.4 C226.2,45 227.2,46.4 228.6,47.5 C230,48.6 232,49.2 234.4,49.2 C235.7,49.2 237.3,48.9 239.2,48.2 C241.1,47.5 242.7,46.2 244.1,44.3 L247,46.3 C244,51 239.3,53.4 232.9,53.4 C230,53.4 227.4,53 225,52.2 C222.6,51.4 220.6,50.2 219,48.7 C217.3,47.2 216.1,45.5 215.2,43.5 C214.3,41.5 213.9,39.3 213.9,37 C213.9,34 214.6,31.2 216.1,28.6 C217.6,26 219.7,24 222.4,22.4 C225.1,20.9 228.2,20.1 231.8,20.1 C235.2,20.1 238.1,20.8 240.5,22.3 C242.9,23.8 244.6,25.7 245.7,28 C246.8,30.3 247.4,33 247.4,35.6 L247.4,35.6 Z M238.1,32.2 C238.1,26.5 235.8,23.6 231.3,23.6 C229.1,23.6 227.4,24.4 226.3,26 C225.1,27.6 224.5,29.6 224.4,32.2 L238.1,32.2 L238.1,32.2 Z"></path>
                    <path d="M290.1,36.5 C290.1,38.9 289.7,41.2 288.8,43.2 C287.9,45.3 286.7,47.1 285.1,48.6 C283.5,50.1 281.7,51.3 279.7,52.1 C277.7,52.9 275.5,53.3 273.2,53.3 C270.5,53.3 268.2,52.8 266.3,51.7 C264.4,50.7 262.8,49.3 261.5,47.7 C259.2,50 257.5,51.9 256.5,53.3 L253.6,53.3 L253.6,11.7 C253.6,10.3 253.4,9.2 253.1,8.6 C252.8,7.9 252.2,7.5 251.4,7.3 C250.6,7.1 249.4,7 247.7,6.9 L247.7,3.5 L263.3,0.2 L263.3,24.5 C264.6,23.3 266.1,22.3 267.8,21.4 C269.5,20.5 271.7,20.1 274.4,20.1 C277,20.1 279.2,20.6 281.2,21.5 C283.2,22.4 284.8,23.7 286.2,25.3 C287.5,26.9 288.5,28.6 289.2,30.6 C289.8,32.5 290.1,34.5 290.1,36.5 L290.1,36.5 Z M279.7,36.2 C279.7,33.1 279.2,30.3 278.1,27.9 C277.1,25.5 275,24.3 272,24.3 C270.9,24.3 269.8,24.5 268.8,25 C267.7,25.4 266.7,26 265.8,26.8 C264.9,27.6 264,28.4 263.3,29.4 L263.3,44.7 C264.8,46.7 266.3,47.9 267.8,48.4 C269.3,48.9 270.6,49.2 271.8,49.2 C273.9,49.2 275.6,48.5 276.8,47.1 C278,45.7 278.8,44.1 279.2,42.1 C279.6,40.1 279.7,38.3 279.7,36.2 L279.7,36.2 Z"></path>
                    <path d="M335.4,51.9 C334.7,52 333.4,52 331.6,52.1 C329.8,52.2 327.8,52.4 325.5,52.6 C323.3,52.8 321.5,53.1 320.1,53.3 L320.1,47.8 C316.9,51.5 313,53.4 308.5,53.4 C305.2,53.4 302.8,52.7 301.2,51.3 C299.6,49.9 298.6,48.4 298.3,46.7 C297.9,45 297.7,43.2 297.7,41.3 L297.7,30.2 C297.7,28.7 297.6,27.6 297.4,27 C297.2,26.3 296.8,25.8 296,25.4 C295.2,25 294,24.9 292.3,24.9 L292.3,21.4 L307.4,21.4 L307.4,42.1 C307.4,46.4 309,48.5 312.3,48.5 C314.2,48.5 315.8,47.8 317.1,46.5 C318.4,45.2 319.4,43.9 320.1,42.6 L320.1,30.2 C320.1,28.6 320,27.5 319.8,26.9 C319.6,26.2 319.1,25.7 318.4,25.4 C317.6,25.1 316.3,24.9 314.5,24.9 L314.5,21.4 L329.8,21.4 L329.8,44 C329.8,45.2 329.9,46.1 330.1,46.6 C330.3,47.2 330.8,47.6 331.6,47.9 C332.4,48.2 333.6,48.4 335.3,48.4 L335.3,51.9 L335.4,51.9 Z"></path>
                    <path d="M372,26.1 C372,27.6 371.6,28.7 370.7,29.5 C369.8,30.3 368.8,30.8 367.6,30.8 C366.2,30.8 364.9,30.1 363.8,28.7 C363.3,28.1 362.9,27.6 362.6,27.3 C362.3,27 361.8,26.9 361.2,26.9 C359.2,26.9 357.7,28 356.6,30.1 C355.5,32.2 355,34.4 355,36.7 L355,43.2 C355,45.3 355.3,46.7 355.8,47.5 C356.3,48.3 357.8,48.7 360.1,48.7 L362.1,48.7 L362.1,52.2 L338.8,52.2 L338.8,48.7 L340.8,48.7 C342.9,48.7 344.2,48.3 344.7,47.5 C345.2,46.7 345.4,45.3 345.4,43.2 L345.4,32.2 C345.4,30.5 345.2,29.3 344.9,28.6 C344.6,27.9 344,27.4 343.1,27.2 C342.2,27 340.8,26.8 338.9,26.8 L338.9,23.3 L353.6,20.1 C354,21.4 354.3,24.1 354.7,28.3 C355.4,26.8 356.3,25.5 357.5,24.2 C358.7,22.9 359.9,22 361.3,21.2 C362.7,20.4 364.2,20.1 365.6,20.1 C367.7,20.1 369.3,20.7 370.5,21.8 C371.4,23 372,24.5 372,26.1 L372,26.1 Z"></path>
                    <path d="M413.3,24.9 C412.2,25 411.4,25.3 410.8,25.7 C410.2,26.1 409.7,26.7 409.2,27.6 C408.7,28.4 407.8,30.1 406.6,32.7 L395.6,55.5 C393.1,60.5 391.5,63.9 390.6,65.5 C389.7,67.2 388.7,68.5 387.6,69.5 C386.5,70.5 385.1,71 383.4,71 C382.2,71 381.2,70.6 380.4,69.9 C379.5,69.2 379.1,68.3 379.1,67.2 C379.1,65.7 379.6,64.6 380.7,63.9 C381.7,63.2 383.1,62.6 384.7,62.2 C386.9,61.5 388.6,60.4 389.8,58.6 C391,56.8 392,55 392.8,52.9 L378.5,27.7 C377.8,26.5 377.2,25.7 376.7,25.4 C376.1,25.1 375.4,24.9 374.4,24.9 L374.4,21.4 L392.6,21.4 L392.6,24.9 L391.4,24.9 C389.7,24.9 388.8,25.3 388.8,26.1 C388.8,26.6 389.2,27.5 389.9,28.7 L397.8,42.6 L403.7,30.7 C404.5,29 404.9,27.8 404.9,27.2 C404.9,26.4 404.5,25.9 403.8,25.5 C403.1,25.1 402.2,24.9 401.2,24.9 L401.2,21.4 L413.4,21.4 L413.4,24.9 L413.3,24.9 Z"></path>
                </g>
                <path d="M157.7,84.8 L112.1,84.8 L112.1,77.2 C115.9,77.2 118.6,76.8 120.2,75.9 C121.8,75.1 122.8,73.9 123.1,72.4 C123.5,70.9 123.6,68.5 123.6,65.2 L123.6,40.3 C123.6,36.7 122.8,33.3 121.2,30.3 C119.6,27.2 115.9,25.7 110.1,25.7 C106,25.7 102.4,26.7 99.4,28.8 C96.4,30.9 94.1,33.7 92.5,37.3 C90.9,40.9 90.1,44.9 90.1,49.3 L90.1,65.2 C90.1,68.6 90.3,71 90.7,72.6 C91.1,74.1 92.2,75.3 93.9,76.1 C95.6,76.9 98.4,77.3 102.2,77.3 L102.2,84.9 L57.5,84.9 L57.5,77.3 C61.2,77.3 63.8,76.9 65.4,76.1 C67,75.3 68,74.1 68.4,72.6 C68.8,71.1 68.9,68.7 68.9,65.4 L68.9,39.5 C68.9,33.7 67.4,30 64.4,28.4 C61.4,26.7 58.6,25.9 55.9,25.9 C52.4,25.9 49,26.8 45.7,28.4 C42.4,30.1 39.9,32.3 38.2,35 C37,37 36.2,38.9 35.9,40.8 C35.5,42.7 35.4,45.1 35.4,48 L35.4,65.3 C35.4,68.7 35.6,71.1 36,72.7 C36.4,74.2 37.5,75.4 39.2,76.2 C41,77 43.7,77.4 47.5,77.4 L47.5,85 L2.6,85 L2.6,77.4 C6.3,77.4 9,77 10.6,76.2 C12.2,75.4 13.2,74.2 13.6,72.7 C14,71.2 14.2,68.7 14.2,65.4 L14.2,37.3 C14.2,32.2 10.9,29.6 4.3,29.6 L0,29.6 L0,22 L34.7,14.9 C35.1,17.8 35.4,22 35.4,27.4 C39.3,23.5 43.4,20.5 47.8,18.2 C52.2,15.9 57.2,14.9 62.9,14.9 C68.2,14.9 73.3,15.9 78.2,18 C83.1,20.1 86.7,23.9 89.2,29.5 C94.2,23.6 99,19.7 103.6,17.7 C108.2,15.8 112.9,14.8 117.8,14.8 C126.5,14.8 133.1,16.9 137.8,21 C142.5,25.1 144.9,31.4 144.9,39.9 L144.9,65.3 C144.9,68.4 145.1,70.7 145.4,72.2 C145.7,73.8 146.6,75 148,75.9 C149.5,76.8 151.8,77.3 154.9,77.3 L157.8,77.3 L157.8,84.8 L157.7,84.8 Z" id="Shape" fill="#448BC1"></path>
                <g transform="translate(199.000000, 63.000000)" id="Shape" fill="#58595B">
                    <path d="M1.8,21.7 L0.1,21.7 L0.1,0.5 L1.8,0.5 L1.8,21.7 L1.8,21.7 Z"></path>
                    <path d="M24.3,21.7 L22.6,21.7 L10.6,3.5 L10.5,3.5 L10.5,21.7 L8.8,21.7 L8.8,0.5 L10.5,0.5 L22.5,18.7 L22.6,18.7 L22.6,0.5 L24.3,0.5 L24.3,21.7 L24.3,21.7 Z"></path>
                    <path d="M43.9,2 L36.6,2 L36.6,21.7 L34.9,21.7 L34.9,2 L27.6,2 L27.6,0.5 L43.9,0.5 L43.9,2 L43.9,2 Z"></path>
                    <path d="M59.6,11.4 L49.4,11.4 L49.4,20.2 L61.1,20.2 L61.1,21.7 L47.7,21.7 L47.7,0.5 L61,0.5 L61,2 L49.4,2 L49.4,10 L59.6,10 L59.6,11.4 L59.6,11.4 Z"></path>
                    <path d="M67.5,12.1 L67.5,21.7 L65.8,21.7 L65.8,0.5 L73,0.5 C75.3,0.5 77,1 78.2,2 C79.4,3 80,4.5 80,6.4 C80,7.5 79.7,8.5 79,9.4 C78.3,10.3 77.4,10.9 76.2,11.3 C77.5,11.6 78.5,12.2 79,13.1 C79.6,13.9 79.9,15 79.9,16.3 L79.9,18.3 C79.9,19 80,19.6 80.1,20.1 C80.3,20.6 80.5,21.1 80.9,21.4 L80.9,21.7 L79.1,21.7 C78.7,21.4 78.5,20.9 78.3,20.2 C78.2,19.6 78.1,18.9 78.1,18.2 L78.1,16.3 C78.1,15 77.7,14 76.8,13.2 C76,12.4 74.8,12.1 73.3,12.1 L67.5,12.1 L67.5,12.1 Z M67.5,10.6 L72.7,10.6 C74.6,10.6 76,10.2 76.9,9.4 C77.8,8.6 78.2,7.6 78.2,6.3 C78.2,4.9 77.8,3.8 76.9,3.1 C76,2.3 74.7,2 72.9,2 L67.5,2 L67.5,10.6 L67.5,10.6 Z"></path>
                    <path d="M97.1,15.8 L87.4,15.8 L85.2,21.7 L83.4,21.7 L91.5,0.5 L93.1,0.5 L101.1,21.7 L99.3,21.7 L97.1,15.8 L97.1,15.8 Z M88,14.2 L96.6,14.2 L92.4,2.7 L92.3,2.7 L88,14.2 L88,14.2 Z"></path>
                    <path d="M119.1,15.1 L119.1,15.1 C118.9,17.3 118.2,19 116.9,20.2 C115.6,21.4 113.8,22 111.6,22 C109.2,22 107.3,21.1 105.9,19.4 C104.5,17.7 103.7,15.5 103.7,12.8 L103.7,9.3 C103.7,6.6 104.4,4.4 105.9,2.7 C107.4,1 109.3,0.1 111.6,0.1 C113.9,0.1 115.6,0.7 117,1.9 C118.3,3.1 119.1,4.8 119.3,6.9 L119.3,7 L117.7,7 C117.5,5.2 116.9,3.9 115.9,3 C114.9,2.1 113.5,1.6 111.8,1.6 C109.9,1.6 108.5,2.3 107.3,3.8 C106.2,5.2 105.6,7.1 105.6,9.3 L105.6,12.8 C105.6,15.1 106.2,16.9 107.3,18.4 C108.4,19.8 109.9,20.5 111.8,20.5 C113.6,20.5 115,20 116,19.1 C117,18.2 117.6,16.8 117.8,15 L119.1,15 L119.1,15.1 Z"></path>
                    <path d="M137.7,2 L130.4,2 L130.4,21.7 L128.7,21.7 L128.7,2 L121.4,2 L121.4,0.5 L137.7,0.5 L137.7,2 L137.7,2 Z"></path>
                    <path d="M143.6,21.7 L141.9,21.7 L141.9,0.5 L143.6,0.5 L143.6,21.7 L143.6,21.7 Z"></path>
                    <path d="M156.4,18.1 L156.8,19.5 L156.9,19.5 L157.3,18.1 L163.7,0.5 L165.6,0.5 L157.7,21.7 L156,21.7 L148.1,0.5 L150,0.5 L156.4,18.1 L156.4,18.1 Z"></path>
                    <path d="M181.1,11.4 L170.9,11.4 L170.9,20.2 L182.6,20.2 L182.6,21.7 L169.2,21.7 L169.2,0.5 L182.6,0.5 L182.6,2 L171,2 L171,10 L181.2,10 L181.2,11.4 L181.1,11.4 Z"></path>
                    <path d="M195.3,20.2 L205.8,20.2 L205.8,21.7 L193.6,21.7 L193.6,0.5 L195.3,0.5 L195.3,20.2 L195.3,20.2 Z"></path>
                    <path d="M221.2,15.8 L211.5,15.8 L209.3,21.7 L207.5,21.7 L215.6,0.5 L217.2,0.5 L225.2,21.7 L223.4,21.7 L221.2,15.8 L221.2,15.8 Z M212.1,14.2 L220.7,14.2 L216.5,2.7 L216.4,2.7 L212.1,14.2 L212.1,14.2 Z"></path>
                    <path d="M244.4,21.7 L242.7,21.7 L230.7,3.5 L230.6,3.5 L230.6,21.7 L228.9,21.7 L228.9,0.5 L230.6,0.5 L242.6,18.7 L242.7,18.7 L242.7,0.5 L244.4,0.5 L244.4,21.7 L244.4,21.7 Z"></path>
                    <path d="M264.8,19.2 C264.3,19.9 263.5,20.5 262.2,21.1 C260.9,21.7 259.4,22 257.4,22 C254.9,22 252.9,21.2 251.3,19.5 C249.7,17.8 248.9,15.6 248.9,13 L248.9,9.1 C248.9,6.5 249.7,4.3 251.2,2.7 C252.7,1.1 254.6,0.2 257,0.2 C259.3,0.2 261.1,0.8 262.4,1.9 C263.7,3 264.4,4.5 264.6,6.4 L264.6,6.5 L263,6.5 C262.7,5.1 262.1,3.9 261.2,3.1 C260.3,2.2 258.9,1.8 257,1.8 C255.1,1.8 253.6,2.5 252.4,3.9 C251.2,5.3 250.7,7 250.7,9.2 L250.7,13.1 C250.7,15.3 251.3,17.1 252.6,18.5 C253.8,19.9 255.4,20.6 257.4,20.6 C258.8,20.6 260,20.4 261,20 C262,19.6 262.7,19.2 263,18.7 L263,13.2 L257.4,13.2 L257.4,11.7 L264.8,11.7 L264.8,19.2 L264.8,19.2 Z"></path>
                    <path d="M285.2,0.5 L285.2,14.9 C285.2,17.2 284.5,19 283.1,20.2 C281.7,21.4 279.8,22 277.6,22 C275.4,22 273.5,21.4 272.2,20.2 C270.8,19 270.1,17.2 270.1,14.9 L270.1,0.5 L271.8,0.5 L271.8,14.9 C271.8,16.7 272.3,18.1 273.4,19.1 C274.5,20.1 275.9,20.6 277.6,20.6 C279.3,20.6 280.8,20.1 281.9,19.1 C283,18.1 283.5,16.7 283.5,14.9 L283.5,0.5 L285.2,0.5 L285.2,0.5 Z"></path>
                    <path d="M301.8,15.8 L292,15.8 L289.8,21.7 L288,21.7 L296.1,0.5 L297.7,0.5 L305.7,21.7 L303.9,21.7 L301.8,15.8 L301.8,15.8 Z M292.6,14.2 L301.2,14.2 L297,2.7 L296.9,2.7 L292.6,14.2 L292.6,14.2 Z"></path>
                    <path d="M324.3,19.2 C323.8,19.9 323,20.5 321.7,21.1 C320.4,21.7 318.9,22 316.9,22 C314.4,22 312.4,21.2 310.8,19.5 C309.2,17.8 308.4,15.6 308.4,13 L308.4,9.1 C308.4,6.5 309.2,4.3 310.7,2.7 C312.2,1.1 314.1,0.2 316.5,0.2 C318.8,0.2 320.6,0.8 321.9,1.9 C323.2,3 323.9,4.5 324.1,6.4 L324.1,6.5 L322.5,6.5 C322.2,5.1 321.6,3.9 320.7,3.1 C319.8,2.2 318.4,1.8 316.5,1.8 C314.6,1.8 313.1,2.5 311.9,3.9 C310.7,5.3 310.2,7 310.2,9.2 L310.2,13.1 C310.2,15.3 310.8,17.1 312.1,18.5 C313.3,19.9 314.9,20.6 316.9,20.6 C318.3,20.6 319.5,20.4 320.5,20 C321.5,19.6 322.2,19.2 322.5,18.7 L322.5,13.2 L316.9,13.2 L316.9,11.7 L324.3,11.7 L324.3,19.2 L324.3,19.2 Z"></path>
                    <path d="M341.8,11.4 L331.6,11.4 L331.6,20.2 L343.3,20.2 L343.3,21.7 L329.9,21.7 L329.9,0.5 L343.3,0.5 L343.3,2 L331.7,2 L331.7,10 L341.9,10 L341.9,11.4 L341.8,11.4 Z"></path>
                    <path d="M359.5,16.5 C359.5,15.3 359.1,14.4 358.2,13.7 C357.3,13 355.8,12.3 353.7,11.8 C351.4,11.2 349.6,10.5 348.4,9.5 C347.2,8.6 346.6,7.3 346.6,5.7 C346.6,4.1 347.3,2.8 348.6,1.7 C349.9,0.7 351.7,0.2 353.8,0.2 C356,0.2 357.7,0.8 359.1,2 C360.4,3.2 361.1,4.7 361.1,6.4 L361.1,6.5 L359.5,6.5 C359.5,5.1 359,3.9 358,3 C357,2.1 355.6,1.6 353.9,1.6 C352.2,1.6 350.9,2 349.9,2.7 C348.9,3.5 348.5,4.4 348.5,5.5 C348.5,6.6 348.9,7.5 349.8,8.2 C350.7,8.9 352.2,9.5 354.4,10.1 C356.7,10.7 358.4,11.5 359.6,12.5 C360.8,13.5 361.4,14.8 361.4,16.4 C361.4,18.1 360.7,19.4 359.3,20.4 C357.9,21.4 356.2,21.9 354,21.9 C351.9,21.9 350,21.4 348.5,20.3 C346.9,19.2 346.2,17.7 346.2,15.6 L346.2,15.5 L347.8,15.5 C347.8,17.1 348.4,18.4 349.6,19.2 C350.8,20 352.3,20.4 354,20.4 C355.7,20.4 357,20 358.1,19.3 C359.2,18.6 359.5,17.7 359.5,16.5 L359.5,16.5 Z"></path>
                </g>
                <g transform="translate(559.000000, 54.000000)" id="Shape" fill="#58595B">
                    <path d="M5.7,1.3 L3.2,1.3 L3.2,8.1 L2.6,8.1 L2.6,1.3 L0.1,1.3 L0.1,0.8 L5.7,0.8 L5.7,1.3 L5.7,1.3 Z"></path>
                    <path d="M8.2,0.8 L10.9,7.2 L10.9,7.2 L13.6,0.8 L14.4,0.8 L14.4,8.1 L13.8,8.1 L13.8,4.9 L13.8,1.7 L13.8,1.7 L11.1,8.1 L10.7,8.1 L8,1.7 L8,1.7 L8.1,4.9 L8.1,8.1 L7.5,8.1 L7.5,0.8 L8.2,0.8 L8.2,0.8 Z"></path>
                </g>
                <path d="M174.3,84.8 L174.3,21.5" id="Shape" stroke="#58595B" fill="#58595B"></path>
            </g>
        </g>
    </g>
</svg>