<?xml version="1.0" encoding="utf-8"?>
<!-- Generator: Adobe Illustrator 19.2.0, SVG Export Plug-In . SVG Version: 6.00 Build 0)  -->
<svg version="1.1" baseProfile="tiny" id="Layer_1" xmlns="http://www.w3.org/2000/svg" xmlns:xlink="http://www.w3.org/1999/xlink"
	 x="0px" y="0px" viewBox="0 0 201.2 63.6" xml:space="preserve">
<g id="LOGO">
	<path d="M179.2,28.9c-2,0.8-2.6,0.9-3.9,1.8c-0.8,0.6-1.6,1.3-2,2.2c-3.9,7.4,1.4,15,1.4,15c-8.3-6.5-10-14-9.9-19.3
		c0-1.3,0.6-2.9,0.4-4.3c-0.1-1.1-0.5-1.6-1-2.5c-4.4-7.4-13.9-6.7-13.9-6.7c9.6-3.9,16.8-1.8,21.5,0.9c2.7,1.8,2.9,2.1,3.6,2.5
		c0.7,0.3,1.5,0.9,3.4,0.7c8.5-0.2,12.5-8.7,12.5-8.7C189.7,21.1,183.9,26.3,179.2,28.9z"/>
	<path fill="#FFFFFF" d="M171.4,28.8c0.8-0.4,2.6-0.4,2.6-0.4c3.8-0.3,6.5-2.3,8.7-5.4c-0.6,0.6-1.5,1-2.4,1.2c-0.1,0-0.3,0-0.5,0.1
		c-1.1,0.1-2.2-0.2-3.1-0.8c-0.7-0.4-1.5-1.9-1.5-1.9c-1.9-2.8-4.7-3.9-8.2-4.1c1.8,0.6,2.8,2.6,2.5,4.5c-0.1,0.8-1,2.3-1,2.3
		c-1.7,3.1-1.5,6.1-0.1,9.1C168.2,31.5,169.6,29.6,171.4,28.8z"/>
</g>
<g id="MEDIA_WORKS">
	<path d="M79.5,48.3c0.1-0.2,1.3-4.1,1.3-4.1l-3.2,4.1H77l-0.6-4.1c0,0-1.2,3.9-1.3,4.1h-0.6l1.5-4.8h0.9l0.7,4l3.2-4h0.9l-1.5,4.8
		H79.5z"/>
	<path d="M82.1,48.3l1.5-4.8H88l-0.2,0.6h-3.7l-0.4,1.4h3.6l-0.2,0.6h-3.6L83,47.7h3.9l-0.2,0.6H82.1z"/>
	<path d="M89.8,43.5h2.4c0.5,0,1,0,1.5,0.4c0.5,0.4,0.6,1.2,0.4,2c-0.2,0.7-0.7,1.4-1.4,1.8c-0.8,0.5-1.7,0.6-2.4,0.6h-1.9
		L89.8,43.5z M90.6,47.7c0.6,0,1.1,0,1.7-0.5c0.7-0.5,0.9-1.2,1-1.4c0.2-0.8,0.1-1.5-0.6-1.7c-0.2-0.1-0.5-0.1-0.7-0.1h-1.7
		l-1.2,3.6H90.6z"/>
	<path d="M94.9,48.3l1.5-4.8h0.7l-1.5,4.8H94.9z"/>
	<path d="M101.5,48.3l-0.2-1.2h-2.9l-1,1.2h-0.8l4-4.8h0.7l0.9,4.8H101.5z M100.8,44.2l-1.9,2.4h2.3L100.8,44.2z"/>
	<path d="M111.4,48.3h-0.7l-0.2-3.9l-2.6,3.9h-0.8l0-4.8h0.7l0,4l2.7-4h0.6l0.2,4l2.5-4h0.7L111.4,48.3z"/>
	<path d="M116.7,48.4c-1.8,0-2.6-0.9-2.1-2.5c0.5-1.7,2.2-2.5,3.7-2.5c1.4,0,2.7,0.8,2.1,2.6C120,47.3,118.6,48.4,116.7,48.4z
		 M118.1,44c-1.2,0-2.4,0.6-2.8,1.9c-0.4,1.2,0.2,1.9,1.6,1.9c1.6,0,2.5-1,2.8-1.9C120,45,119.8,44,118.1,44z"/>
	<path d="M125.8,48.3l-1-1.9h-2.3l-0.6,1.9h-0.7l1.5-4.8h3.2c0.4,0,0.5,0,0.7,0.1c0.6,0.2,0.8,0.7,0.6,1.3c-0.1,0.3-0.3,0.9-1.2,1.2
		c-0.1,0-0.3,0.1-0.6,0.1l1.1,2H125.8z M125.1,45.8c0.4,0,0.8,0,1.2-0.3c0.1-0.1,0.3-0.2,0.3-0.5c0-0.1,0.1-0.3,0-0.5
		c-0.1-0.4-0.4-0.4-0.8-0.4h-2.6l-0.5,1.7H125.1z"/>
	<path d="M132.4,48.3l-1.3-2.6l-1.8,1.1l-0.5,1.5h-0.7l1.5-4.8h0.7l-0.8,2.5l4.2-2.5h1l-3,1.8l1.6,3H132.4z"/>
	<path d="M134.8,47c0.1,0.2,0.2,0.3,0.6,0.5c0.5,0.2,1.1,0.2,1.3,0.2c0.2,0,0.8,0,1.4-0.3c0.4-0.2,0.5-0.5,0.5-0.6
		c0.2-0.6-0.4-0.7-1-0.8l-0.7-0.1c-0.9-0.1-1.3-0.1-1.6-0.4c-0.2-0.3-0.1-0.6-0.1-0.8c0.2-0.7,0.8-1,1-1.1c0.3-0.2,0.9-0.3,1.7-0.3
		c1.4,0,1.9,0.5,2.1,1l-0.7,0.2c-0.3-0.4-0.7-0.6-1.5-0.6c-0.7,0-1.6,0.2-1.8,0.8c-0.2,0.5,0.3,0.6,0.8,0.6l1.4,0.1
		c0.9,0.1,1.4,0.5,1.1,1.3c-0.2,0.7-1,1.5-2.8,1.5c-1.1,0-2.1-0.3-2.3-1.1L134.8,47z"/>
</g>
<g id="PROPELLER">
	<path d="M35.9,24.1c-0.7-1-2.1-2.1-4.7-2.4l0.1,0c-0.2,0-0.5,0-0.8,0c-0.1,0-0.1,0-0.2,0c-0.1,0-0.2,0-0.2,0
		c-5.7,0-18.3,0.2-18.3,0.2s9.4,1,10,3.8c-1.1,1.4-2.6,4.2-4.2,10.1c-1.8,6.6-2.5,8.8-2.5,8.8l-0.4,1.3h2.2l4-9.5
		c1.1,1.1,2.8,1.7,4.9,1.7c4.9,0,9.3-3.2,10.8-7.7C37.3,28,37.1,25.8,35.9,24.1z M22.8,30.5c0.9-2.7,3.5-5.6,7.2-5.6
		c1.3,0,2.3,0.4,2.8,1.2c0.6,0.9,0.7,2.2,0.3,3.6c-0.8,2.5-3.6,5.1-7,5.1c-1.5,0-2.5-0.4-3.1-1.2C22.4,32.9,22.4,31.8,22.8,30.5z"/>
	<path d="M85.3,24.1c-0.8-1.1-2.4-2.4-5.6-2.4c-2.6,0-5.5,1.1-7.3,2.9c-0.8,0.4-3,2.2-5.6,11.2c-1.8,6.5-2.8,8.7-2.8,8.7l-0.6,1.4
		h2.7l4-9.5c1.1,1.1,2.8,1.7,4.9,1.7c4.9,0,9.3-3.2,10.8-7.7C86.7,28,86.5,25.8,85.3,24.1z M79.3,25c1.3,0,2.3,0.4,2.8,1.2
		c0.6,0.9,0.7,2.2,0.3,3.6c-0.8,2.5-3.6,5.1-7,5.1c-1.5,0-2.5-0.4-3.1-1.2c-0.6-0.8-0.6-1.9-0.2-3.2C73,27.9,75.7,25,79.3,25z"/>
	<path d="M49.7,21.9c-0.5-0.1-1.1-0.1-1.6,0c-0.2,0-0.3,0-0.5,0l-0.5,0c-1.7,0-5.2-0.1-7,4.9c-1,2.9-3.1,9.7-3.1,9.7l-0.4,1.3h3.6
		l2.5-7.7c0.1-0.3,0.2-0.5,0.3-0.8c0.7-2.4,1.4-4.2,3.5-4.2c0.2,0,0.4,0,0.7,0c0.4,0,0.9,0,1.4,0H49l2.8-3.2L49.7,21.9z"/>
	<path d="M151,21.9c-0.5-0.1-1.1-0.1-1.6,0c-0.2,0-0.3,0-0.5,0l-0.5,0c-1.7,0-5.2-0.1-7,4.9c-1,2.9-3.1,9.7-3.1,9.7l-0.4,1.3h3.6
		l2.5-7.7c0.1-0.3,0.2-0.5,0.3-0.8c0.7-2.4,1.4-4.2,3.5-4.2c0.2,0,0.4,0,0.7,0c0.4,0,0.9,0,1.4,0h0.5l2.8-3.2L151,21.9z"/>
	<path d="M59.7,21.7c-4.9,0-9.9,3.5-11.4,7.9c-0.7,2.1-0.4,4.2,0.7,5.8c1.2,1.7,3.4,2.7,5.9,2.7c5.1,0,10-3.4,11.4-7.9
		c0.7-2.2,0.5-4.3-0.7-5.8C64.5,22.7,62.4,21.7,59.7,21.7z M59.2,25c1.6,0,2.8,0.5,3.5,1.4c0.6,0.8,0.7,2,0.3,3.3
		c-1,2.9-4.3,5.3-7.7,5.3c-1.4,0-2.5-0.5-3.2-1.4c-0.6-0.9-0.7-2-0.3-3.3C52.7,27.3,56.1,25,59.2,25z"/>
	<path d="M98.2,21.7c-4.7,0-9.3,3.4-10.8,7.8c-0.8,2.4-0.6,4.6,0.6,6.2c1.1,1.6,3.1,2.4,5.5,2.4c3.3,0,6.5-1.4,8.9-4.1l0,0
		c0.2-0.2,0.5-0.5,0.7-0.7l-1.5-1.3c0,0,0,0,0,0c-1.5,1.6-5.3,2.9-7.5,2.9c-1.5,0-2.6-0.5-3.2-1.3c-0.5-0.7-0.6-1.6-0.3-2.6H104
		l0.2-0.7c0.8-2.4,0.6-4.6-0.5-6.2C102.9,23,101.3,21.7,98.2,21.7z M97.9,25c1.2,0,2.1,0.4,2.7,1.1c0.4,0.5,0.6,1.1,0.6,1.8h-9.2
		C93.4,26.1,95.8,25,97.9,25z"/>
	<path d="M131.2,21.7c-4.7,0-9.3,3.4-10.8,7.8c-0.8,2.4-0.6,4.6,0.6,6.2c1.1,1.6,3.1,2.4,5.5,2.4c3,0,5.8-1.2,8.1-3.3
		c0.4-0.3,0.8-0.7,1.1-1.1l-1.5-1.3c0,0,0,0,0,0c0,0,0,0,0,0c-1.4,1.5-4.8,2.5-7.1,2.5c-1.5,0-2.6-0.5-3.2-1.3
		c-0.5-0.7-0.6-1.6-0.3-2.6H137l0.2-0.7c0.8-2.4,0.6-4.6-0.5-6.2C135.9,23,134.3,21.7,131.2,21.7z M130.8,25c1.2,0,2.1,0.4,2.7,1.1
		c0.4,0.5,0.6,1.1,0.6,1.8H125C126.4,26.1,128.7,25,130.8,25z"/>
	<path d="M109,33.6l0.2-0.5l0,0l5.3-17h-3.6L106,31.7c-0.2,0.5-0.5,1.2-0.8,2.1c-0.5,1.3-0.1,2.2,0.2,2.7c1,1.4,3,1.4,3.3,1.4h0.8
		l0.4-2.7h-1.2C108.8,35.2,108.6,34.9,109,33.6z"/>
	<path d="M116.1,33.6l0.2-0.5l0,0l5.3-17h-3.6L113,31.7c-0.2,0.5-0.5,1.2-0.8,2.1c-0.5,1.3-0.1,2.2,0.2,2.7c1,1.4,3,1.4,3.3,1.4h0.8
		l0.4-2.7h-1.2C115.8,35.2,115.6,34.9,116.1,33.6z"/>
</g>
<g>
</g>
<g>
</g>
<g>
</g>
<g>
</g>
<g>
</g>
<g>
</g>
</svg>
