<?xml version="1.0" encoding="utf-8"?>
<!-- Generator: Adobe Illustrator 16.0.0, SVG Export Plug-In . SVG Version: 6.00 Build 0)  -->
<!DOCTYPE svg PUBLIC "-//W3C//DTD SVG 1.1//EN" "http://www.w3.org/Graphics/SVG/1.1/DTD/svg11.dtd">
<svg version="1.1" id="Layer_1" xmlns="http://www.w3.org/2000/svg" xmlns:xlink="http://www.w3.org/1999/xlink" x="0px" y="0px"
	 width="1232px" height="469px" viewBox="0 0 1232 469" enable-background="new 0 0 1232 469" xml:space="preserve">
<path fill="#754C29" d="M0,142.771v326.532l602.062-0.605L1232,469V142.468V0L602.062-0.303L0,0.303V142.771z M269.717,8.107
	c59.659,5.69,108.885,42.933,126.3,95.608c4.396,13.277,6.121,24.226,6.121,38.709c0,20.432-3.534,36.381-12.155,54.228
	c-7.242,15.173-14.139,24.829-26.726,37.415c-28.536,28.622-66.641,43.968-109.23,43.882
	c-67.589-0.086-127.162-43.968-142.593-104.833c-15.001-59.573,15.604-121.041,74.573-149.922
	C211.956,10.607,240.664,5.434,269.717,8.107z M610.251,8.107c46.727,4.483,87.936,28.622,111.902,65.521
	c8.621,13.363,13.45,24.57,17.588,40.95c3.018,11.983,3.793,34.916,1.552,47.933c-4.483,27.244-18.794,54.055-39.399,73.625
	c-59.917,57.158-159.232,55.521-216.303-3.534c-23.191-24.054-34.744-49.831-37.416-83.539c-1.724-21.122,5-48.278,17.07-69.486
	C492.918,31.039,550.766,2.503,610.251,8.107z M967.684,8.107c26.897,2.759,50.262,11.035,72.331,25.605
	c12.759,8.535,29.915,25.346,37.847,37.329c10.087,15.173,16.467,30.001,20.088,46.812c2.672,12.673,2.672,36.812,0,49.486
	c-16.467,76.383-96.299,124.317-178.458,107.161c-30.863-6.466-61.728-24.225-81.297-46.899
	c-15.518-17.845-25.519-38.019-30.604-61.727c-2.415-11.122-2.242-36.123,0.344-48.02c5.346-24.57,16.553-45.605,34.227-63.968
	c13.879-14.397,25.777-22.932,43.968-31.64C911.129,10.435,940.183,5.348,967.684,8.107z M102.984,178.805
	c5.69,25.26,20.001,49.054,40.691,67.417c37.933,33.795,92.85,47.933,145.784,37.761c53.02-10.26,96.126-44.227,113.368-89.229
	c3.017-8.018,5.862-18.536,6.638-24.916c0.345-2.414,0.949-5,1.38-5.689c0.517-0.776,0.604,3.276,0.344,11.208
	c-0.862,22.5-7.069,41.812-19.742,60.952c-23.622,35.863-62.934,59.83-110.092,67.244c-11.121,1.811-38.45,1.983-49.571,0.432
	c-64.745-9.225-115.437-50.606-129.403-105.782c-1.811-6.983-2.242-11.208-2.5-22.415c-0.259-10.518-0.173-12.759,0.431-9.483
	C100.829,168.632,102.036,174.322,102.984,178.805z M444.209,182.254c8.793,32.587,30.174,60.605,60.606,79.486
	c64.744,40.262,153.456,32.071,206.218-19.053c9.827-9.483,16.034-17.328,22.673-28.363c7.932-13.19,14.483-31.294,16.294-44.83
	c0.345-2.5,0.948-4.742,1.466-5.087c1.466-0.862,0,20.949-2.069,30.433c-7.069,32.674-27.587,61.641-58.537,82.418
	c-55.779,37.502-134.145,37.415-190.354-0.173c-20.433-13.621-38.278-33.363-48.451-53.451
	c-8.535-16.812-13.621-40.002-12.242-55.606l0.518-6.035l1.121,6.897C442.054,172.685,443.26,178.719,444.209,182.254z
	 M798.969,169.839c2.931,16.553,8.275,31.123,16.293,44.485c44.055,73.279,151.388,95.522,228.891,47.416
	c34.657-21.553,56.642-53.623,63.538-92.849l1.207-6.897l-0.345,13.793c-0.346,17.501-2.932,28.623-10.604,45.347
	c-14.483,31.984-48.451,61.297-86.299,74.4c-19.655,6.897-36.38,9.569-59.141,9.483c-30.088,0-55.864-6.294-80.435-19.397
	c-38.45-20.519-64.055-52.503-72.676-90.867c-1.725-7.5-3.448-33.364-2.155-32.244C797.503,162.771,798.364,166.132,798.969,169.839
	z"/>
<path fill="#754C29" d="M244.716,25.436c-40.347,2.758-77.504,23.535-98.712,55.261c-9.139,13.708-14.225,25.864-17.329,41.64
	c-2.155,10.69-2.328,28.622-0.431,39.312c4.224,23.536,15.863,44.744,34.226,62.417c50.434,48.451,134.317,48.537,184.923,0.173
	c10.604-10.087,18.191-20.26,24.053-32.071c8.449-17.156,11.639-30.519,11.639-49.055c0-31.036-11.122-57.416-33.623-79.831
	C322.306,36.212,284.89,22.677,244.716,25.436z M279.2,45.264c34.398,6.983,63.365,28.45,78.194,58.106
	c7.328,14.57,10.431,27.846,10.431,44.399c0,28.277-10.776,53.106-31.812,73.28c-12.759,12.155-25.777,20.001-41.985,25.432
	c-11.984,3.966-20.432,5.519-32.76,6.121c-40.175,1.984-78.883-16.896-100.351-49.054c-24.656-36.812-22.759-83.539,4.828-118.023
	c19.311-24.225,47.589-39.054,80.694-42.416C253.337,42.419,270.837,43.54,279.2,45.264z"/>
<path fill="#754C29" d="M208.076,78.627c0,0.776,37.243,132.852,38.881,137.852l0.948,2.845h6.724c5.69,0,6.811-0.259,7.242-1.552
	c1.552-5,39.312-139.059,39.312-139.404c0-0.259-3.966-0.431-8.879-0.431h-8.88l-14.052,51.899
	c-7.759,28.622-14.311,52.244-14.656,52.675c-0.345,0.345-6.983-23.019-14.742-51.985l-14.139-52.589h-8.88
	C212.042,77.938,208.076,78.283,208.076,78.627z"/>
<path fill="#754C29" d="M585.25,25.349c-70.348,5.173-123.799,62.589-117.679,126.472c2.672,28.363,14.052,51.64,35.261,72.072
	c17.414,16.812,38.623,28.019,62.589,33.364c30.001,6.552,61.555,3.017,89.229-10c28.277-13.363,52.33-38.882,62.072-65.78
	c4.914-13.449,6.12-20.087,6.639-35.001c0.517-15.863-0.69-25.087-5.001-37.933c-5.862-17.415-14.742-31.64-28.363-45.261
	C663.014,36.298,624.907,22.504,585.25,25.349z M619.39,45.178c11.553,2.328,20.433,5.431,30.95,10.863
	c51.468,26.294,72.331,85.263,47.848,135.351c-15.002,30.778-43.02,51.642-79.746,59.485c-10.259,2.156-33.708,2.242-43.968,0.088
	c-31.553-6.639-56.554-22.847-73.193-47.503c-7.5-11.121-12.07-21.897-15.346-36.036c-2.241-10-1.982-30.777,0.518-41.209
	c5.086-20.777,14.828-37.502,30.518-52.331c18.708-17.673,42.244-28.019,70.004-30.777C593.786,42.419,611.286,43.54,619.39,45.178z
	"/>
<path fill="#754C29" d="M541.713,94.749v8.19h25.001h25.001v59.055v59.055h9.914h9.915v-59.055v-59.055h25.001h25.001v-8.19v-8.19
	H601.63h-59.917V94.749z"/>
<path fill="#754C29" d="M941.819,25.436C873.541,30.78,822.073,84.49,824.832,147.338c1.206,28.708,12.5,53.709,33.708,75.004
	c34.915,35.088,89.229,47.244,138.283,30.95c38.104-12.673,67.331-40.95,78.969-76.728c17.501-53.365-8.104-110.437-61.727-137.421
	C993.115,28.539,966.304,23.452,941.819,25.436z M974.925,44.747c45.865,8.018,82.678,43.709,89.66,86.987
	c8.88,54.916-28.708,106.299-86.9,118.799c-12.588,2.672-35.175,2.672-47.762,0c-22.76-4.914-42.157-15.26-57.675-30.778
	c-9.053-9.052-14.397-16.294-19.829-26.811c-14.225-28.019-14.397-61.297-0.345-89.401c19.053-38.105,60.779-62.072,105.178-60.521
	C962.684,43.281,970.7,44.057,974.925,44.747z"/>
<path fill="#754C29" d="M902.076,150.355v68.969h22.674c29.312,0,45.52-1.121,56.383-3.88c24.57-6.207,39.054-19.914,45.261-42.847
	c1.725-6.207,1.982-9.225,1.982-23.104c0-14.052-0.258-16.725-1.982-22.759c-7.587-26.381-26.898-40.692-60.09-44.485
	c-4.225-0.431-20.432-0.862-35.95-0.862h-28.277V150.355z M973.028,99.749c8.621,1.983,17.932,6.812,22.933,11.812
	c7.673,7.673,11.121,17.587,11.897,34.053c1.034,23.363-4.742,38.881-17.674,47.589c-10.776,7.241-24.397,9.742-52.934,9.742
	h-15.346V150.27V97.594l22.674,0.431C960.7,98.284,968.805,98.801,973.028,99.749z"/>
<text transform="matrix(1 0 0 1 203.1143 426.082)" fill="#FFFFFF" font-family="'LucidaGrande'" font-size="128">VTDigger.org</text>
</svg>
